<svg xmlns="http://www.w3.org/2000/svg" width="12" height="12" viewBox="0 0 247 247"><defs><linearGradient id="c"><stop offset="0" style="stop-color:#acb6c3"/><stop offset="1" style="stop-color:#717171"/></linearGradient><linearGradient id="d"><stop offset="0" style="stop-color:#d4dadf"/><stop offset=".28188" style="stop-color:#ffffff"/><stop offset="1" style="stop-color:#7c8b9f"/></linearGradient><linearGradient id="a"><stop offset="0" style="stop-color:#4d0206"/><stop offset=".5" style="stop-color:#eb5c5c"/><stop offset="1" style="stop-color:#4d0206"/></linearGradient><linearGradient id="b"><stop offset="0" style="stop-color:#616161"/><stop offset=".5" style="stop-color:#d4d4d4"/><stop offset="1" style="stop-color:#616161"/></linearGradient><linearGradient id="e" x1="353.28" x2="69.530998" y1="339.75" y2="55.188" gradientTransform="matrix(.87 0 0 .87 20 49)" gradientUnits="userSpaceOnUse"><stop offset="0" style="stop-color:#356a32"/><stop offset=".62880" style="stop-color:#4d844a"/><stop offset="1" style="stop-color:#356a32"/></linearGradient><linearGradient id="f" x1="164.73" x2="167.32001" y1="470.04001" y2="470.04001" gradientUnits="userSpaceOnUse" href="#a"/><linearGradient id="g" x1="164.2" x2="167.86" y1="469.37" y2="469.37" gradientUnits="userSpaceOnUse" href="#b"/><linearGradient id="h" x1="164.73" x2="167.32001" y1="470.04001" y2="470.04001" gradientTransform="matrix(0 1.12 -1.07 0 1474 320)" gradientUnits="userSpaceOnUse" href="#a"/><linearGradient id="m" x1="164.2" x2="167.86" y1="469.37" y2="469.37" gradientTransform="matrix(0 1.12 -1.07 0 1474 320)" gradientUnits="userSpaceOnUse" href="#b"/><linearGradient id="n" x1="175.87" x2="191.92999" y1="546.04999" y2="545.17999" gradientTransform="matrix(1.07 0 0 1.12 -55 -416)" gradientUnits="userSpaceOnUse" href="#c"/><linearGradient id="o" x1="245.75999" x2="246.12" y1="615.34998" y2="600.62" gradientTransform="matrix(1.07 0 0 1.12 -55 -416)" gradientUnits="userSpaceOnUse" href="#c"/><linearGradient id="p" x1="246.45" x2="245.71001" y1="476.76999" y2="490.22" gradientTransform="matrix(1.07 0 0 1.12 -55 -416)" gradientUnits="userSpaceOnUse" href="#c"/><linearGradient id="q" x1="321.60999" x2="302.26001" y1="543.07001" y2="543.57001" gradientTransform="matrix(1.07 0 0 1.12 -55 -416)" gradientUnits="userSpaceOnUse" href="#c"/><linearGradient id="s" x1="213.05" x2="303.20999" y1="483.79999" y2="608.15997" gradientTransform="matrix(.93 0 0 .97 -28 -313)" gradientUnits="userSpaceOnUse" href="#d"/><filter id="r" style="color-interpolation-filters:sRGB"><feGaussianBlur stdDeviation="1.3130609"/></filter></defs><path d="m85 97-3 2-1 240 5 5h239l3-2-1-242-2-2z" style="fill:url(#e)" transform="translate(-81 -97)"/><path d="M840 504h-5v5h5zm7 0h-4v5h4zm26 0h-5v5h5zm7 0h-5v5h5zm13 1h-5v5h5zm7 0h-5v5h5zm16-10h-4v6h4zm8 0h-5v6h5zm8 0h-5v6h5zm7 0h-4v6h4zm8 9h-4v5h4zm8 0h-5v5h5zm43 42v5h5v-5zm0-8v5h5v-5zm-10 62v4h5v-4zm0-8v5h5v-5zm10 23v5h5v-5zm0-8v5h5v-5zm-10 62v5h5v-5zm0-8v5h5v-5zm10-24v4h5v-4zm0-8v5h5v-5zm-10 8v4h5v-4zm0-8v5h5v-5zm0-54v5h5v-5zm0-8v5h5v-5zm-187-26v5h5v-5zm0-8v5h5v-5zm9 25v4h5v-4zm0-8v5h5v-5zm-9 8v4h5v-4zm0-8v5h5v-5zm9-33v4h5v-4zm0-8v5h5v-5zm-9 14v5h5v-5zm0-8v5h5v-5zm0-11v5h5v-5zm0-8v5h5v-5zm20 0h-5v5h5zm8 0h-5v5h5zm138 8h-4v5h4zm8 0h-5v5h5zm-40 184h-5v5h5zm7 0h-4v5h4zm11 0h-5v5h5zm7 0h-4v5h4zm19 7h-4v5h4zm8 0h-5v5h5zm9 0h-5v5h5zm7 0h-5v5h5zm-15-165v5h5v-5zm0-8v5h5v-5zm-76 172v5h5v-5zm0-8v5h5v-5zm-13 8v5h4v-5zm0-8v5h4v-5zm-21 8v5h5v-5zm0-8v5h5v-5zm120-2v4h5v-4zm0-8v5h5v-5zM782 461h-15v16h15z" style="fill:#c6c48e" transform="matrix(.87 0 0 .87 -661 -397)"/><path d="M165 470v6h2v-6Z" style="fill:url(#f)" transform="matrix(0 .97 -.93 0 592 41)"/><path d="M164 468v3h4v-3z" style="fill:url(#g)" transform="matrix(0 .97 -.93 0 592 41)"/><path d="M164 475v3h4v-3z" style="fill:url(#linearGradient183644)#000000" transform="matrix(0 .97 -.93 0 592 41)"/><path d="M165 470v6h2v-6Z" style="fill:url(#linearGradient183646)#000000" transform="matrix(0 .97 -.93 0 645 47)"/><path d="M164 468v3h4v-3z" style="fill:url(#linearGradient183648)#000000" transform="matrix(0 .97 -.93 0 645 47)"/><path d="M164 475v3h4v-3z" style="fill:url(#linearGradient183650)#000000" transform="matrix(0 .97 -.93 0 645 47)"/><path d="M165 470v6h2v-6Z" style="fill:url(#linearGradient183652)#000000" transform="matrix(.93 0 0 .97 -20 -256)"/><path d="M164 468v3h4v-3z" style="fill:url(#linearGradient183654)#000000" transform="matrix(.93 0 0 .97 -20 -256)"/><path d="M164 475v3h4v-3z" style="fill:url(#linearGradient183656)#000000" transform="matrix(.93 0 0 .97 -20 -256)"/><path d="M165 470v6h2v-6Z" style="fill:url(#linearGradient183658)#000000" transform="matrix(.93 0 0 .97 -32 -256)"/><path d="M164 468v3h4v-3z" style="fill:url(#linearGradient183660)#000000" transform="matrix(.93 0 0 .97 -32 -256)"/><path d="M164 475v3h4v-3z" style="fill:url(#linearGradient183662)#000000" transform="matrix(.93 0 0 .97 -32 -256)"/><path d="M165 470v6h2v-6Z" style="fill:url(#linearGradient183664)#000000" transform="matrix(.93 0 0 .97 -49 -256)"/><path d="M164 468v3h4v-3z" style="fill:url(#linearGradient183666)#000000" transform="matrix(.93 0 0 .97 -49 -256)"/><path d="M164 475v3h4v-3z" style="fill:url(#linearGradient183668)#000000" transform="matrix(.93 0 0 .97 -49 -256)"/><path d="M165 470v6h2v-6Z" style="fill:url(#linearGradient183670)#000000" transform="matrix(0 .97 -.93 0 608 41)"/><path d="M164 468v3h4v-3z" style="fill:url(#linearGradient183672)#000000" transform="matrix(0 .97 -.93 0 608 41)"/><path d="M164 475v3h4v-3z" style="fill:url(#linearGradient183674)#000000" transform="matrix(0 .97 -.93 0 608 41)"/><path d="M165 470v6h2v-6Z" style="fill:url(#linearGradient183676)#000000" transform="matrix(0 .97 -.93 0 631 47)"/><path d="M164 468v3h4v-3z" style="fill:url(#linearGradient183678)#000000" transform="matrix(0 .97 -.93 0 631 47)"/><path d="M164 475v3h4v-3z" style="fill:url(#linearGradient183680)#000000" transform="matrix(0 .97 -.93 0 631 47)"/><path d="M165 470v6h2v-6Z" style="fill:url(#linearGradient183682)#000000" transform="matrix(.93 0 0 .97 -109 -410)"/><path d="M164 468v3h4v-3z" style="fill:url(#linearGradient183684)#000000" transform="matrix(.93 0 0 .97 -109 -410)"/><path d="M164 475v3h4v-3z" style="fill:url(#linearGradient183686)#000000" transform="matrix(.93 0 0 .97 -109 -410)"/><path d="M165 470v6h2v-6Z" style="fill:url(#linearGradient183688)#000000" transform="matrix(.93 0 0 .97 -117 -405)"/><path d="M164 468v3h4v-3z" style="fill:url(#linearGradient183690)#000000" transform="matrix(.93 0 0 .97 -117 -405)"/><path d="M164 475v3h4v-3z" style="fill:url(#linearGradient183692)#000000" transform="matrix(.93 0 0 .97 -117 -405)"/><path d="M165 470v6h2v-6Z" style="fill:url(#linearGradient183694)#000000" transform="matrix(.93 0 0 .97 -117 -389)"/><path d="M164 468v3h4v-3z" style="fill:url(#linearGradient183696)#000000" transform="matrix(.93 0 0 .97 -117 -389)"/><path d="M164 475v3h4v-3z" style="fill:url(#linearGradient183698)#000000" transform="matrix(.93 0 0 .97 -117 -389)"/><path d="M165 470v6h2v-6Z" style="fill:url(#linearGradient183700)#000000" transform="matrix(.93 0 0 .97 -109 -375)"/><path d="M164 468v3h4v-3z" style="fill:url(#linearGradient183702)#000000" transform="matrix(.93 0 0 .97 -109 -375)"/><path d="M164 475v3h4v-3z" style="fill:url(#linearGradient183704)#000000" transform="matrix(.93 0 0 .97 -109 -375)"/><path d="M165 470v6h2v-6Z" style="fill:url(#linearGradient183706)#000000" transform="matrix(.93 0 0 .97 -117 -375)"/><path d="M164 468v3h4v-3z" style="fill:url(#linearGradient183708)#000000" transform="matrix(.93 0 0 .97 -117 -375)"/><path d="M164 475v3h4v-3z" style="fill:url(#linearGradient183710)#000000" transform="matrix(.93 0 0 .97 -117 -375)"/><path d="M165 470v6h2v-6Z" style="fill:url(#linearGradient183712)#000000" transform="matrix(.93 0 0 .97 -117 -421)"/><path d="M164 468v3h4v-3z" style="fill:url(#linearGradient183714)#000000" transform="matrix(.93 0 0 .97 -117 -421)"/><path d="M164 475v3h4v-3z" style="fill:url(#linearGradient183716)#000000" transform="matrix(.93 0 0 .97 -117 -421)"/><path d="M165 470v6h2v-6Z" style="fill:url(#linearGradient183718)#000000" transform="matrix(.93 0 0 .97 55 -306)"/><path d="M164 468v3h4v-3z" style="fill:url(#linearGradient183720)#000000" transform="matrix(.93 0 0 .97 55 -306)"/><path d="M164 475v3h4v-3z" style="fill:url(#linearGradient183722)#000000" transform="matrix(.93 0 0 .97 55 -306)"/><path d="M165 470v6h2v-6Z" style="fill:url(#linearGradient183724)#000000" transform="matrix(.93 0 0 .97 46 -306)"/><path d="M164 468v3h4v-3z" style="fill:url(#linearGradient183726)#000000" transform="matrix(.93 0 0 .97 46 -306)"/><path d="M164 475v3h4v-3z" style="fill:url(#linearGradient183728)#000000" transform="matrix(.93 0 0 .97 46 -306)"/><path d="M165 470v6h2v-6Z" style="fill:url(#linearGradient183730)#000000" transform="matrix(.93 0 0 .97 55 -265)"/><path d="M164 468v3h4v-3z" style="fill:url(#linearGradient183732)#000000" transform="matrix(.93 0 0 .97 55 -265)"/><path d="M164 475v3h4v-3z" style="fill:url(#linearGradient183734)#000000" transform="matrix(.93 0 0 .97 55 -265)"/><path d="M165 470v6h2v-6Z" style="fill:url(#linearGradient183736)#000000" transform="matrix(.93 0 0 .97 46 -278)"/><path d="M164 468v3h4v-3z" style="fill:url(#linearGradient183738)#000000" transform="matrix(.93 0 0 .97 46 -278)"/><path d="M164 475v3h4v-3z" style="fill:url(#linearGradient183740)#000000" transform="matrix(.93 0 0 .97 46 -278)"/><path d="M165 470v6h2v-6Z" style="fill:url(#linearGradient183742)#000000" transform="matrix(.93 0 0 .97 55 -325)"/><path d="M164 468v3h4v-3z" style="fill:url(#linearGradient183744)#000000" transform="matrix(.93 0 0 .97 55 -325)"/><path d="M164 475v3h4v-3z" style="fill:url(#linearGradient183746)#000000" transform="matrix(.93 0 0 .97 55 -325)"/><path d="M165 470v6h2v-6Z" style="fill:url(#linearGradient183748)#000000" transform="matrix(.93 0 0 .97 46 -399)"/><path d="M164 468v3h4v-3z" style="fill:url(#linearGradient183750)#000000" transform="matrix(.93 0 0 .97 46 -399)"/><path d="M164 475v3h4v-3z" style="fill:url(#linearGradient183752)#000000" transform="matrix(.93 0 0 .97 46 -399)"/><path d="M165 470v6h2v-6Z" style="fill:url(#linearGradient183754)#000000" transform="matrix(.93 0 0 .97 46 -360)"/><path d="M164 468v3h4v-3z" style="fill:url(#linearGradient183756)#000000" transform="matrix(.93 0 0 .97 46 -360)"/><path d="M164 475v3h4v-3z" style="fill:url(#linearGradient183758)#000000" transform="matrix(.93 0 0 .97 46 -360)"/><path d="M165 470v6h2v-6Z" style="fill:url(#linearGradient183760)#000000" transform="matrix(.93 0 0 .97 46 -338)"/><path d="M164 468v3h4v-3z" style="fill:url(#linearGradient183762)#000000" transform="matrix(.93 0 0 .97 46 -338)"/><path d="M164 475v3h4v-3z" style="fill:url(#linearGradient183764)#000000" transform="matrix(.93 0 0 .97 46 -338)"/><path d="M165 470v6h2v-6Z" style="fill:url(#linearGradient183766)#000000" transform="matrix(.93 0 0 .97 55 -385)"/><path d="M164 468v3h4v-3z" style="fill:url(#linearGradient183768)#000000" transform="matrix(.93 0 0 .97 55 -385)"/><path d="M164 475v3h4v-3z" style="fill:url(#linearGradient183770)#000000" transform="matrix(.93 0 0 .97 55 -385)"/><path d="M165 470v6h2v-6Z" style="fill:url(#linearGradient183772)#000000" transform="matrix(0 .97 -.93 0 493 -126)"/><path d="M164 468v3h4v-3z" style="fill:url(#linearGradient183774)#000000" transform="matrix(0 .97 -.93 0 493 -126)"/><path d="M164 475v3h4v-3z" style="fill:url(#linearGradient183776)#000000" transform="matrix(0 .97 -.93 0 493 -126)"/><path d="M972 505h-6v3h6z" style="fill:url(#h)" transform="matrix(.87 0 0 .87 -661 -397)"/><path d="M974 504h-3v4h3z" style="fill:url(#m)" transform="matrix(.87 0 0 .87 -661 -397)"/><path d="M967 504h-4v4h4z" style="fill:url(#linearGradient183782)#000000" transform="matrix(.87 0 0 .87 -661 -397)"/><path d="M165 470v6h2v-6Z" style="fill:url(#linearGradient183784)#000000" transform="matrix(0 .97 -.93 0 603 -118)"/><path d="M164 468v3h4v-3z" style="fill:url(#linearGradient183786)#000000" transform="matrix(0 .97 -.93 0 603 -118)"/><path d="M164 475v3h4v-3z" style="fill:url(#linearGradient183788)#000000" transform="matrix(0 .97 -.93 0 603 -118)"/><path d="M165 470v6h2v-6Z" style="fill:url(#linearGradient183790)#000000" transform="matrix(0 .97 -.93 0 590 -126)"/><path d="M164 468v3h4v-3z" style="fill:url(#linearGradient183792)#000000" transform="matrix(0 .97 -.93 0 590 -126)"/><path d="M164 475v3h4v-3z" style="fill:url(#linearGradient183794)#000000" transform="matrix(0 .97 -.93 0 590 -126)"/><path d="M165 470v6h2v-6Z" style="fill:url(#linearGradient183796)#000000" transform="matrix(0 .97 -.93 0 576 -126)"/><path d="M164 468v3h4v-3z" style="fill:url(#linearGradient183798)#000000" transform="matrix(0 .97 -.93 0 576 -126)"/><path d="M164 475v3h4v-3z" style="fill:url(#linearGradient183800)#000000" transform="matrix(0 .97 -.93 0 576 -126)"/><path d="M165 470v6h2v-6Z" style="fill:url(#linearGradient183802)#000000" transform="matrix(0 .97 -.93 0 556 -118)"/><path d="M164 468v3h4v-3z" style="fill:url(#linearGradient183804)#000000" transform="matrix(0 .97 -.93 0 556 -118)"/><path d="M164 475v3h4v-3z" style="fill:url(#linearGradient183806)#000000" transform="matrix(0 .97 -.93 0 556 -118)"/><path d="M165 470v6h2v-6Z" style="fill:url(#linearGradient183808)#000000" transform="matrix(0 .97 -.93 0 538 -118)"/><path d="M164 468v3h4v-3z" style="fill:url(#linearGradient183810)#000000" transform="matrix(0 .97 -.93 0 538 -118)"/><path d="M164 475v3h4v-3z" style="fill:url(#linearGradient183812)#000000" transform="matrix(0 .97 -.93 0 538 -118)"/><path d="M165 470v6h2v-6Z" style="fill:url(#linearGradient183814)#000000" transform="matrix(0 .97 -.93 0 510 -118)"/><path d="M164 468v3h4v-3z" style="fill:url(#linearGradient183816)#000000" transform="matrix(0 .97 -.93 0 510 -118)"/><path d="M164 475v3h4v-3z" style="fill:url(#linearGradient183818)#000000" transform="matrix(0 .97 -.93 0 510 -118)"/><path d="M804 690h2l2 2v2l-2 1h-2l-1-1v-2zm15 0h-3v-2h3zm4 0h-3v-2h3zm0 8h-7v-2h7zm9-2h-2v2h2zm5 0h-3v2h3zm0-8h-7v2h7zm18 6v5h5v-5zm0-8v5h5v-5zm133-184h2l2 2v1l-2 2h-2l-1-2v-1zm6 7h2l2 1v2l-2 2h-2l-1-2v-2zm-11 74h2l1 1v2l-1 2h-2l-1-2v-2zm-16 95h2l2 2v2l-2 1h-2l-1-1v-2zm-155-38h1l2 1v2l-2 2h-1l-2-2v-2zm29-143h-3v2h3zm4 0h-3v2h3zm28 0h-2v2h2zm4 0h-2v2h2zm16 0h-2v2h2zm4 0h-2v2h2zm-77 9v3h6v-3zm95-1v3h6v-3zm15 0v3h7v-3zm-128 67v2h3v-2zm0-4v2h3v-2zm9 1v7h3v-7zm122 127v3h7v-3zm20 0h-2v3h2zm4 0h-2v3h2zm9-199v2h6v-2zm-18 0h-2v2h2zm4 0h-2v2h2zm47 20v6h3v-6zm-9 28v2h2v-2zm0-5v3h2v-3zm0 13v7h2v-7zm9 12v3h3v-3zm0-4v3h3v-3zm0 17v7h3v-7zm0 21v2h3v-2zm0-5v3h3v-3zm-9 17v7h2v-7zm-12 77v3h6v-3zm21-19v2h3v-2zm0-5v3h3v-3zm0-12v3h3v-3zm0-4v3h3v-3zm-11 5v5h5v-5zm0-8v5h5v-5zm-187-17v5h5v-5zm0-8v5h5v-5zm9 4v5h5v-5zm0-8v5h5v-5zm0-9v5h5v-5zm0-8v5h5v-5zm0-9v5h5v-5zm0-8v5h5v-5zm0-41v5h5v-5zm0-8v5h5v-5zm45-36v2h6v-2zm1 7h-4v5h4zm8 0h-5v5h5z" style="fill:#fffdcf" transform="matrix(.87 0 0 .87 -661 -397)"/><path d="m208 184-71 86q-4-3-4-11l1-125q1-8 4-12z" style="fill:url(#n)" transform="matrix(.87 0 0 .87 -60 -48)"/><path d="M284 269q-4 4-12 4l-125 1q-6 0-10-4l71-86z" style="fill:url(#o)" transform="matrix(.87 0 0 .87 -60 -48)"/><path d="M149 119h123q8 0 13 5l-78 63-69-65q5-3 11-3" style="fill:url(#p)" transform="matrix(.87 0 0 .87 -60 -48)"/><path d="M285 124q3 3 3 11v122q0 9-4 12l-78-84z" style="fill:url(#q)" transform="matrix(.87 0 0 .87 -60 -48)"/><path d="M186 482h127l3 3v121l-5 4H185l-3-3 2-123z" style="fill:#303030;filter:url(#r)" transform="matrix(.93 0 0 .97 -108 -409)"/><path d="M146 159h116l1 2-1 117-1 1-116 1-2-1 2-119z" style="fill:url(#s)" transform="translate(-81 -97)"/></svg>
